<?xml version="1.0" encoding="UTF-8"?>
<!DOCTYPE svg PUBLIC "-//W3C//DTD SVG 1.1//EN" "http://www.w3.org/Graphics/SVG/1.1/DTD/svg11.dtd">
<!-- Creator: CorelDRAW 2017 -->
<svg xmlns="http://www.w3.org/2000/svg" xml:space="preserve" width="42.5mm" height="40mm" version="1.1" style="shape-rendering:geometricPrecision; text-rendering:geometricPrecision; image-rendering:optimizeQuality; fill-rule:evenodd; clip-rule:evenodd"
viewBox="0 0 4250 4000"
 xmlns:xlink="http://www.w3.org/1999/xlink">
 <defs>
  <style type="text/css">
   <![CDATA[
    .fil0 {fill:#575756}
   ]]>
  </style>
 </defs>
 <g id="Capa_x0020_1">
  <metadata id="CorelCorpID_0Corel-Layer"/>
  <path class="fil0" d="M8 3996.59c-10.13,-31.39 -4.28,-1877 -4.77,-2085.22 -0.53,-227.15 -6.63,-467.75 0.69,-693.22 282.79,0.32 565.59,0.65 848.38,0.98 6.83,108.14 1.17,238.27 0.95,348.97 -0.55,280.13 7.97,2389.69 -4.13,2428.49 -280.37,0 -560.75,0 -841.12,0zm2182.99 -2521.03c23.49,-1.25 20.87,-3.37 36.15,-25.36 0.83,-1.19 1.93,-2.95 2.76,-4.16 295.52,-398.11 842.8,-557.04 1314.7,-423.22 487.7,138.33 654.19,443.57 694.26,959.21 11.47,147.61 15.17,1966.97 4.3,2014.56 -280.96,0 -561.92,0 -842.88,0 -11.05,-63.09 -2.78,-1359.56 -2.78,-1461.41 0,-236.4 9.3,-468.18 -74.58,-661.3 -74.27,-170.99 -215.66,-264.48 -479.3,-248.05 -544.34,33.93 -547.19,413.84 -547.17,916.36 0,84 7.08,1409.58 -3.45,1454.35 -278.66,1.15 -557.33,2.3 -836,3.46 0,-971.59 0,-1943.18 -0.01,-2914.77 244.22,0.24 488.44,0.49 732.65,0.73 0.45,129.87 0.9,259.73 1.35,389.6zm-2186.11 -1475.56c282.78,0.47 565.57,0.94 848.35,1.42 0.97,241.28 1.93,482.57 2.9,723.86 -284.19,0 -568.37,0 -852.55,0 0.43,-241.76 0.86,-483.52 1.3,-725.28z"/>
 </g>
</svg>
