<?xml version="1.0" encoding="UTF-8"?>
<!DOCTYPE svg PUBLIC "-//W3C//DTD SVG 1.1//EN" "http://www.w3.org/Graphics/SVG/1.1/DTD/svg11.dtd">
<!-- Creator: CorelDRAW 2017 -->
<svg xmlns="http://www.w3.org/2000/svg" xml:space="preserve" width="44.5mm" height="40mm" version="1.1" style="shape-rendering:geometricPrecision; text-rendering:geometricPrecision; image-rendering:optimizeQuality; fill-rule:evenodd; clip-rule:evenodd"
viewBox="0 0 4450 4000"
 xmlns:xlink="http://www.w3.org/1999/xlink">
 <defs>
  <style type="text/css">
   <![CDATA[
    .fil0 {fill:#575756}
   ]]>
  </style>
 </defs>
 <g id="Capa_x0020_1">
  <metadata id="CorelCorpID_0Corel-Layer"/>
  <path class="fil0" d="M995.94 2859.38l242.57 -240.69c-664.66,-663.4 -916.26,-1279.99 -883.29,-1698.34 12.73,-161.47 67.3,-295.32 156.79,-393.63 90.43,-99.35 215.18,-161.1 367.23,-177.26 336.04,-35.69 811.61,156.46 1341.45,670.21 525.13,-508.81 1000.38,-698.62 1336.99,-661.58 151.45,16.65 276.16,78.44 366.9,177.55 89.85,98.14 144.92,231.52 158.01,392.39 33.78,414.71 -214.58,1025.18 -875.45,1686.37l246.91 244.98c163.75,-163.43 304.8,-324.13 424.93,-480.84 1460.34,-1905.09 -169.36,-3222.84 -1653.99,-1741.1 -1485.55,-1482.67 -3116.37,-162.34 -1651.2,1744.71 119.52,155.56 259.65,315.05 422.15,477.23zm331.73 -329.16l287.65 -285.41c-1317.74,-1315.2 -912.4,-2085.71 609.67,-614.49 1522.08,-1471.22 1927.42,-700.71 609.68,614.49l283.31 281.1c632.1,-632.35 870.55,-1205.11 839.36,-1588.06 -10.79,-132.64 -54.39,-240.64 -125.12,-317.89 -69.86,-76.31 -167.84,-124.08 -288.3,-137.34 -311.83,-34.3 -765.87,157.57 -1278.77,669.48l-44.46 44.37 -44.45 -44.37c-518,-516.99 -972.48,-711.16 -1283.74,-678.1 -120.31,12.78 -218.01,60.52 -287.66,137.04 -70.6,77.55 -113.87,186.02 -124.36,319.13 -30.46,386.48 211.16,965.24 847.07,1599.91l0.12 0.14zm904.52 1469.78l563.63 -567.36c-34.04,-65.19 -497.61,-526.97 -567.47,-568.94 -71.19,42.76 -531.51,501.37 -571.29,571.68l575.13 564.62z"/>
 </g>
</svg>
