<?xml version="1.0" encoding="UTF-8"?>
<!DOCTYPE svg PUBLIC "-//W3C//DTD SVG 1.1//EN" "http://www.w3.org/Graphics/SVG/1.1/DTD/svg11.dtd">
<!-- Creator: CorelDRAW 2017 -->
<svg xmlns="http://www.w3.org/2000/svg" xml:space="preserve" width="40mm" height="40mm" version="1.1" style="shape-rendering:geometricPrecision; text-rendering:geometricPrecision; image-rendering:optimizeQuality; fill-rule:evenodd; clip-rule:evenodd"
viewBox="0 0 4000 4000"
 xmlns:xlink="http://www.w3.org/1999/xlink">
 <defs>
  <style type="text/css">
   <![CDATA[
    .fil0 {fill:#575756}
   ]]>
  </style>
 </defs>
 <g id="Capa_x0020_1">
  <metadata id="CorelCorpID_0Corel-Layer"/>
  <path class="fil0" d="M4.85 310.31c0,347.24 -16.22,3373.34 10.71,3444.53 49.46,130.73 155.52,237.84 290.32,238.29 596.71,0 1193.43,0 1790.14,0 0,-529.42 0,-1058.85 0,-1588.27 -142.97,0 -285.93,0 -428.9,0 -0.71,-22.46 -2.13,-563.48 1.95,-581.53 142.32,-0.41 284.63,-0.83 426.95,-1.25 0,-1047.63 308.67,-1247.02 1246.88,-1226.76 30.74,0.27 23.77,6.96 23.77,74.73 0,171.44 0,342.87 0,514.31 -454.13,0 -682.12,-49.71 -638.16,637.34 111.53,5.86 599.42,-9.08 637.53,2.9 0.18,192.46 0.37,384.93 0.56,577.4 -18.38,7.92 -566.71,2.39 -639.26,2.87 0,529.42 0,1058.84 0,1588.26 214.43,0 890.93,24.91 1051.86,-20.15 105.34,-29.49 213.11,-169.5 213.5,-286.32 1.22,-364.69 23.33,-3359.36 -15.96,-3455.28 -51.39,-125.48 -152.7,-227.1 -285.07,-227.54 -358.83,-1.2 -3335.66,-11.16 -3433.21,6.82 -133.54,24.61 -236.71,149.34 -253.61,299.65z"/>
 </g>
</svg>
