<?xml version="1.0" encoding="UTF-8"?>
<!DOCTYPE svg PUBLIC "-//W3C//DTD SVG 1.1//EN" "http://www.w3.org/Graphics/SVG/1.1/DTD/svg11.dtd">
<!-- Creator: CorelDRAW 2017 -->
<svg xmlns="http://www.w3.org/2000/svg" xml:space="preserve" width="40mm" height="40mm" version="1.1" style="shape-rendering:geometricPrecision; text-rendering:geometricPrecision; image-rendering:optimizeQuality; fill-rule:evenodd; clip-rule:evenodd"
viewBox="0 0 4000 4000"
 xmlns:xlink="http://www.w3.org/1999/xlink">
 <defs>
  <style type="text/css">
   <![CDATA[
    .fil0 {fill:#575756}
   ]]>
  </style>
 </defs>
 <g id="Capa_x0020_1">
  <metadata id="CorelCorpID_0Corel-Layer"/>
  <path class="fil0" d="M9.57 2454.2c-4.73,-22.4 -45.67,-1420.31 87.83,-1726.75 215.31,-494.2 516.43,-645.13 1004.97,-708 240.55,-30.95 1842.26,-30.03 2037.46,40.47 376.4,135.95 603.65,251.77 757.47,671.97 132.86,362.93 134.67,2141.42 17.78,2484.74 -233.98,687.25 -784.01,774.41 -1463.17,774.41 -312.79,0 -1389.92,54.96 -1771.25,-107.78 -801.66,-342.1 -616.24,-1169.04 -671.09,-1429.06zm3003.75 -379.12c-34.58,202.8 -52.17,343.13 -185.27,516.24 -618.9,805 -1660.45,360.64 -1813.64,-317.95 -280.58,-1242.76 1360.85,-1813.18 1916.52,-682.43 68.01,138.37 108,334.61 82.39,484.14zm281.04 -1106.9c-69.82,371.45 -605.09,173.01 -436.36,-152.76 113.36,-218.83 482.39,-92.49 436.36,152.76zm-1755.98 2670.78c135.07,0.26 1288.37,32.88 1528.45,-46.14 196.87,-64.79 392.17,-163.49 470.41,-371.56 78.62,-209.05 94.96,-417.8 94.86,-641.81 -0.23,-444.49 29.36,-1146.31 -31.63,-1597.84 -61.05,-452.07 -459.13,-605.22 -861.51,-607 -341.32,-1.52 -1126.84,-35.02 -1420.4,-6.97 -353.51,33.79 -549.3,22.23 -797.89,306.59 -33.26,38.05 -131.48,280.82 -139.91,406.15 -11.41,169.84 -72.27,1747.41 45.32,2059.09 186.73,494.91 655.19,498.63 1112.3,499.49zm-193.94 -1496.89c92.31,465.91 668.71,665.78 989.64,435.45 145.27,-104.26 249.96,-194.88 304.55,-381.32 96.19,-328.49 -35.01,-556.51 -274.43,-754.84 -273.83,-226.82 -904.08,-121.27 -1022.66,428.51 -18.5,85.77 -13.26,191 2.9,272.2z"/>
 </g>
</svg>
