<?xml version="1.0" encoding="UTF-8"?>
<!DOCTYPE svg PUBLIC "-//W3C//DTD SVG 1.1//EN" "http://www.w3.org/Graphics/SVG/1.1/DTD/svg11.dtd">
<!-- Creator: CorelDRAW 2017 -->
<svg xmlns="http://www.w3.org/2000/svg" xml:space="preserve" width="13.33mm" height="10mm" version="1.1" style="shape-rendering:geometricPrecision; text-rendering:geometricPrecision; image-rendering:optimizeQuality; fill-rule:evenodd; clip-rule:evenodd"
viewBox="0 0 1333 1000"
 xmlns:xlink="http://www.w3.org/1999/xlink">
 <defs>
  <style type="text/css">
   <![CDATA[
    .fil0 {fill:#575757}
   ]]>
  </style>
 </defs>
 <g id="Capa_x0020_1">
  <metadata id="CorelCorpID_0Corel-Layer"/>
  <path class="fil0" d="M291.51 333.33l0 666.65 750 0 0 -666.65 -750 0zm208.34 499.99c0,23.01 -18.66,41.67 -41.67,41.67 -23.01,0 -41.67,-18.66 -41.67,-41.67l0 -333.33c0,-23.01 18.66,-41.67 41.67,-41.67 23.01,0 41.67,18.66 41.67,41.67l0 333.33zm208.33 0c0,23.01 -18.66,41.67 -41.67,41.67 -23.01,0 -41.67,-18.66 -41.67,-41.67l0 -333.33c0,-23.01 18.66,-41.67 41.67,-41.67 23.01,0 41.67,18.66 41.67,41.67l0 333.33zm208.32 0c0,23.01 -18.66,41.67 -41.67,41.67 -23,0 -41.66,-18.66 -41.66,-41.67l0 -333.33c0,-23.01 18.66,-41.67 41.66,-41.67 23.01,0 41.67,18.66 41.67,41.67l0 333.33zm166.66 -640.61l-17.04 81.58 -816.28 -170.78 17.04 -81.59 230.32 45.8c36.71,7.7 75.83,-30.92 83.5,-67.7l216.83 45.24c-7.67,36.75 12.79,87.79 49.54,95.46l236.07 52 0.02 -0.01z"/>
 </g>
</svg>
